<svg width="1280px" height="1210px" viewBox="0 0 1280 1210" version="1.1" xmlns="http://www.w3.org/2000/svg" xmlns:xlink="http://www.w3.org/1999/xlink">
    <path d="M9.68960088,696.522417 C-48.8621377,375.557152 163.985269,67.7314854 484.950534,9.17094599 C788.393401,-46.1949021 1079.13671,154.833027 1134.47616,458.099878 L1269.13723,429.541274 C1334.72961,789.071655 1096.5183,1133.62307 736.996715,1199.22425 C397.38255,1261.1907 71.6208476,1035.96057 9.68960088,696.522417 Z" id="puck" fill="#1A1919"></path>
    <g id="letters" transform="translate(155.500000, 443.500000)" fill="#FFFFFF">
        <path d="M951.468365,257.568508 C948.765757,259.524953 945.628958,260.897121 942.084554,261.649599 C938.327484,262.455195 935.128659,261.720421 932.523522,259.48069 C929.918384,257.223253 928.093016,253.611354 927.029694,248.583024 C926.0284,243.784864 925.408129,238.606039 925.160021,233.002284 C924.920773,227.416234 924.80558,221.360992 924.832163,214.836557 L924.849885,25.8138473 L843.833652,43.0057779 L843.833652,62.1187429 L851.595898,60.2065612 C854.803584,59.5249038 857.612525,59.1176799 860.004999,58.9583314 C862.388611,58.7901302 864.417783,59.0734164 866.05707,59.7639265 C867.714079,60.472142 869.069814,61.6938137 870.124274,63.4377943 C871.196457,65.1817749 872.047114,67.6339709 872.685107,70.7589717 C872.791439,71.2016064 872.88891,71.9363799 873.004103,72.9898504 C873.074991,73.9902048 873.172463,75.2295819 873.243351,76.6725709 C873.314239,78.0890018 873.349683,79.6382232 873.349683,81.2671188 C873.349683,82.904867 873.331961,84.4717938 873.287656,86.0033097 L873.110435,225.450936 C873.101574,243.60781 874.11173,257.595066 876.167485,267.40385 C878.480209,278.452012 883.761372,286.322056 892.037557,291.022836 C900.304882,295.732469 910.97354,296.68856 924.043533,293.92652 C930.23738,292.625174 935.802096,290.757255 940.73768,288.296207 C945.637819,285.852863 950.015159,283.073117 953.816534,279.930411 C957.591325,276.796558 960.914204,273.441387 963.758589,269.873752 C966.594113,266.306116 969.030891,262.782744 971.095507,259.339046 L960.533181,249.512557 C957.192579,252.903138 954.170974,255.585504 951.468365,257.568508" id="l"></path>
        <path d="M707.101841,228.048402 C707.701156,219.689943 708.935041,211.490188 710.768241,203.440322 C712.592627,195.399273 715.09565,188.028311 718.294936,181.300985 C721.494223,174.600111 725.469094,168.966086 730.201922,164.337192 C734.934751,159.743566 740.601806,156.745807 747.211902,155.343913 C751.609819,154.400501 755.937228,154.321148 760.167689,155.026503 C764.406964,155.749493 767.949975,157.477613 770.831977,160.228498 L770.779096,219.398984 C770.796723,228.894828 769.906564,238.487659 768.06455,248.142209 C766.23135,257.814392 763.737141,266.648966 760.573108,274.672382 C757.435516,282.731065 753.663355,289.467208 749.274252,294.924894 C744.893961,300.356129 740.240454,303.627214 735.269662,304.685246 C732.625624,305.249531 730.052093,305.196629 727.557884,304.482457 C725.054861,303.803552 722.728107,302.269405 720.542369,299.880014 C718.391884,297.517074 716.382415,294.210721 714.513962,289.952139 C712.654321,285.728825 711.032645,280.315224 709.666558,273.75542 C708.335726,267.433674 707.427939,260.32722 706.934385,252.427242 C706.440831,244.518446 706.502526,236.424495 707.101841,228.048402 M658.213573,284.344565 C660.082027,293.223224 662.8142,301.24664 666.445346,308.405995 C670.058865,315.591801 674.465595,321.543236 679.64791,326.242665 C684.830225,330.915643 690.779311,334.204362 697.503982,336.08237 C704.211026,337.960379 711.596706,338.057365 719.634582,336.355696 C727.892795,334.601124 734.90831,331.964859 740.681127,328.490985 C746.453944,325.01711 751.371855,320.599823 755.628757,315.406646 C771.819085,295.612615 776.164121,272.856092 776.164121,272.856092 C776.164121,272.856092 776.833944,281.461426 777.212923,284.882399 C777.591902,288.36509 778.155963,291.847781 778.896294,295.427459 C780.738307,304.288484 785.180291,310.389807 792.20462,313.731427 C799.220135,317.055413 807.751565,317.654965 817.77247,315.494815 C823.818504,314.225176 829.335731,312.400069 834.297709,309.993044 C839.250874,307.621287 843.763366,304.949755 847.808745,301.987263 C851.84531,299.077672 855.432388,295.982926 858.587607,292.844096 C861.716386,289.687631 864.483813,286.698688 866.881074,283.886084 L856.586952,271.798059 C853.4758,274.540128 850.611425,276.920702 847.985014,278.930964 C845.367416,280.923593 842.450161,282.263767 839.250874,282.942672 C835.743117,283.709746 832.570271,282.925038 829.802844,280.623817 C827.000164,278.313778 825.034762,274.328521 823.844944,268.641595 C823.377831,266.410909 823.025293,263.64239 822.778516,260.256685 C822.549366,256.915064 822.364283,253.397105 822.232081,249.764526 C822.117506,246.158397 822.046998,242.69334 822.055812,239.457523 C822.073439,236.204072 822.108693,233.594258 822.15276,231.601629 L822.15276,120.040885 C822.15276,120.040885 803.529917,121.663202 788.07992,136.246421 C788.07992,136.246421 781.831176,134.571202 777.865119,133.980467 C773.872621,133.372098 769.677414,132.948885 765.253056,132.737279 C760.855139,132.516855 756.280953,132.525672 751.548124,132.772546 C746.824109,133.010604 742.26755,133.610156 737.86082,134.544751 C726.394507,136.978227 716.223773,141.139823 707.339804,147.011905 C698.464649,152.910438 690.752871,159.919905 684.20447,168.022673 C677.682508,176.134258 672.306297,185.09227 668.093463,194.923158 C663.880629,204.762863 660.707783,214.822992 658.618992,225.121178 C656.512575,235.410547 655.45496,245.629381 655.446084,255.795313 C655.437333,265.952428 656.362746,275.45709 658.213573,284.344565" id="a"></path>
        <path d="M456.350347,331.38708 C456.111954,325.833491 456.006002,319.785466 456.023661,313.269491 L456.315029,197.226862 L375.888424,214.284943 L375.870765,233.382577 L382.819468,231.802144 C386.024525,231.113464 388.788113,230.707319 391.119063,230.557222 C393.450013,230.398296 395.445448,230.663173 397.078879,231.38717 C398.721139,232.067021 400.08086,233.303114 401.131553,235.068961 C402.182246,236.80832 403.047523,239.245189 403.700896,242.361909 C403.789189,242.785712 403.895142,243.527368 403.965776,244.525071 C404.080558,245.584579 404.168852,246.811843 404.248316,248.242179 C404.301292,249.672515 404.354268,251.199973 404.416074,252.824552 C404.46022,254.431472 404.477879,256.003076 404.442562,257.539363 L404.486708,323.873401 C404.416074,332.932196 404.654466,340.95797 405.184228,347.924236 C405.722818,354.890502 406.499802,360.832577 407.515178,365.715143 C409.828469,376.734028 415.099595,384.583217 423.337384,389.28037 C431.584003,393.951035 442.205718,394.93108 455.229019,392.16753 C461.400739,390.851974 466.927916,389.006664 471.775232,386.569795 C476.631378,384.150585 480.975421,381.360547 484.816191,378.217339 C488.639302,375.082961 491.976799,371.719023 494.793364,368.1785 C497.636416,364.620318 500.082148,361.106283 502.130559,357.671711 L491.597137,347.871261 C488.268469,351.252857 485.257659,353.928115 482.564705,355.879376 C479.871752,357.848296 476.73733,359.225656 473.214417,359.967312 C469.461941,360.770772 466.274543,360.020287 463.687542,357.79532 C461.091711,355.570353 459.264034,351.941538 458.213341,346.95302 C457.233282,342.167575 456.597569,336.993644 456.350347,331.38708" id="i"></path>
        <path d="M495.028087,207.885788 C501.425075,206.542913 506.189728,206.48107 509.330869,207.735598 C512.472011,208.954787 514.483753,211.711214 515.357273,215.951871 C515.877856,218.381414 516.195499,221.226188 516.354321,224.44202 C516.521966,227.666686 516.627847,230.246419 516.689611,232.225392 L516.689611,375.656784 L567.680223,364.80777 L568.253746,303.000193 C568.924327,246.6878 578.709512,197.345988 603.05336,191.735952 C622.120796,187.353939 626.638393,221.915295 626.638393,221.915295 C655.146901,215.147913 659.126269,187.822179 655.146901,176.451917 C645.423479,148.61377 603.891586,146.148888 580.615374,180.286178 C565.183192,202.92952 565.686127,222.851773 565.686127,222.851773 L564.265555,174.252076 L488.101693,190.375408 L488.216397,209.431861 L495.028087,207.885788 Z" id="r"></path>
        <path d="M255.07922,404.964779 C253.179481,404.170722 250.422652,403.35902 249.212121,402.55614 L249.326989,338.687522 C249.326989,285.591605 276.029358,259.70536 286.438157,258.134893 C290.007897,257.587876 293.144675,257.826093 295.963356,259.405383 C298.773202,261.019965 301.238444,263.402135 303.34141,266.560715 C305.43554,269.70165 307.246919,273.398425 308.784381,277.68633 C310.304172,281.95659 311.550047,286.394484 312.530842,291.061772 C313.873913,297.502454 314.766348,304.648963 315.208148,312.518946 C315.641111,320.371283 315.552751,328.373609 314.943068,336.499455 C314.342221,344.642946 313.140526,352.645272 311.320311,360.506433 C309.508933,368.394061 307.070199,375.531748 303.986437,381.998898 C300.885004,388.457224 297.067855,393.909746 292.508483,398.34764 C287.975619,402.785534 282.665188,405.652961 276.586025,406.94992 C273.944063,407.523405 271.310938,407.743977 268.695484,407.664571 C266.088866,407.56752 263.650132,407.32048 261.352774,406.870514 C259.081924,406.429372 256.987794,405.80295 255.07922,404.964779 M284.803498,428.001243 C296.511188,425.530844 306.822791,421.21647 315.738307,415.075766 C324.671496,408.952707 332.341137,401.71797 338.782575,393.327438 C345.215178,384.936907 350.410741,375.743496 354.36043,365.756029 C358.327791,355.742093 361.252504,345.595814 363.116898,335.24661 C364.990129,324.94152 365.909072,314.830533 365.84722,304.922471 C365.80304,295.01441 364.910605,285.926873 363.17875,277.721622 C361.093456,267.725332 358.053875,259.140698 354.068842,251.985365 C350.101482,244.812388 345.427242,239.09518 340.001942,234.76316 C334.620823,230.457609 328.559332,227.625474 321.888158,226.249109 C315.208148,224.881567 308.157026,224.987441 300.7613,226.540263 C292.375943,228.322479 285.280642,231.066386 279.484231,234.798452 C273.68782,238.530518 268.766172,243.074286 264.701615,248.465048 C260.637059,253.864633 257.182186,259.987691 254.363504,266.851869 C251.535987,273.698402 248.938205,281.109597 246.552487,289.04134 L244.361161,241.989075 L170.448085,257.667281 L170.448085,276.768754 L177.393175,275.154172 C180.591804,274.457167 183.375141,274.060139 185.699007,273.901327 C188.022873,273.760162 190.019808,274.024847 191.672138,274.739498 C193.315633,275.42768 194.66754,276.66288 195.727859,278.409804 C196.779342,280.147906 197.636433,282.591835 198.281461,285.715125 C198.378656,286.138622 198.475852,286.862095 198.564212,287.876723 C198.67908,288.926642 198.749768,290.161842 198.838128,291.582321 C198.891144,293.020445 198.952996,294.537976 199.006012,296.16138 C199.059028,297.784785 199.067864,299.328784 199.03252,300.855137 L199.006012,516.997341 L271.337446,501.504414 L271.346282,486.840836 C271.346282,486.840836 264.984367,487.934869 262.660501,488.076035 C260.327799,488.243669 258.348537,487.970161 256.705042,487.25551 C255.061548,486.584973 253.718477,485.36742 252.649322,483.60285 C251.580167,481.829456 250.731911,479.39435 250.086884,476.315175 C249.989688,475.874032 249.892492,475.12409 249.795296,474.127108 C249.689264,473.094834 249.627412,471.859635 249.539052,470.42151 C249.468364,468.983385 249.415348,467.465855 249.362333,465.833628 C249.318153,464.219046 249.309317,462.675047 249.335825,461.175162 L249.326989,427.242477 C254.248636,428.751185 259.037744,429.836396 265.240611,429.977561 C271.443477,430.118727 277.96444,429.439367 284.803498,428.001243" id="p"></path>
        <path d="M134.698311,273.430112 C129.171962,271.523119 122.277267,270.530077 114.031882,270.407045 C105.760014,270.327953 95.9608953,271.461603 84.5815586,273.869511 C72.6725399,276.391663 62.2642871,279.889281 53.3568001,284.379941 C44.4493132,288.844238 37.1750126,294.152181 31.5427265,300.251043 C25.9104404,306.349904 22.0261052,313.081501 19.9073769,320.480984 C17.7709925,327.862892 17.5591197,335.710563 19.3070705,343.997633 C20.7019,350.650137 22.9707049,356.415056 26.1311413,361.301175 C29.2915777,366.160931 33.184741,370.370376 37.8547713,373.911934 C42.5159736,377.427128 47.8922467,380.388679 53.9747625,382.787799 C60.0661064,385.213283 66.7577567,387.278459 74.0144012,388.965752 C81.3151858,390.784865 87.6272306,392.437007 92.9593635,393.974904 C98.2914964,395.521589 102.81145,397.244034 106.501569,399.168603 C110.191687,401.119536 113.087282,403.4132 115.206011,406.111111 C117.315911,408.765083 118.772537,412.043001 119.602372,415.909715 C120.467519,420.004916 120.396895,423.818901 119.399327,427.316519 C118.410587,430.822926 116.706777,433.951448 114.279067,436.702088 C111.877842,439.487879 108.805686,441.869423 105.071427,443.864295 C101.345996,445.867956 97.170336,447.370702 92.5356178,448.328592 C86.3559936,449.64679 80.8826121,449.506182 76.1154734,447.906769 C71.3395067,446.316143 67.1815024,443.653384 63.6502885,439.953642 C60.1102466,436.2539 57.1351989,431.772028 54.7692857,426.499237 C52.3945443,421.20887 50.5671412,415.540619 49.2782481,409.450546 C44.7671224,410.408436 40.4237294,411.849666 36.3010372,413.83575 C32.169517,415.813047 28.6471312,418.300047 25.7691919,421.261598 C22.8735965,424.231937 20.7725243,427.791071 19.430663,431.877484 C18.1152858,435.990261 17.9916934,440.665469 19.1128537,445.9822 C20.3399506,451.861362 22.9707049,456.791422 26.9786326,460.807531 C30.9777323,464.806064 36.1156485,467.829131 42.357069,469.84158 C48.5984894,471.897968 55.8374778,472.899798 64.0652061,472.891068 C72.3105905,472.899798 81.2710456,471.854028 90.9907118,469.806428 C104.550573,466.941544 116.185923,463.057255 125.879105,458.188711 C135.572287,453.302591 143.358613,447.607977 149.238084,441.016988 C155.117555,434.469939 159.037203,427.202276 160.97937,419.143693 C162.91271,411.085111 162.91271,402.499249 160.997026,393.289441 C159.663993,386.997244 157.607061,381.434449 154.82623,376.662573 C152.036571,371.890697 148.434733,367.672464 144.056028,364.025451 C139.659667,360.413589 134.43347,357.293854 128.342126,354.683822 C122.25961,352.100155 115.241323,349.947098 107.278436,348.136774 C100.012963,346.554936 93.7185745,345.078555 88.3776135,343.716417 C83.0189965,342.389431 78.5078708,340.807594 74.8618925,339.032421 C71.2070861,337.274824 68.3379749,335.165707 66.2722148,332.71386 C64.1976266,330.262012 62.7763131,327.133489 61.98179,323.381019 C61.2843752,320.067949 61.2932033,316.816395 62.0171021,313.661508 C62.7233449,310.506621 64.1093463,307.58901 66.1397943,304.908675 C68.1702422,302.228339 70.7833405,299.881947 73.9879171,297.887075 C77.2013217,295.85705 81.0150326,294.398244 85.4202219,293.466718 C90.275641,292.438524 94.6013779,292.737315 98.3974328,294.363093 C102.18466,295.997658 105.530485,298.47587 108.42608,301.771364 C111.312848,305.110798 113.669933,308.968724 115.514992,313.362716 C117.377707,317.783073 118.772537,322.238581 119.717136,326.790758 C131.749748,324.224666 140.789655,320.190981 146.898655,314.628186 C152.981171,309.07418 155.073415,301.753788 153.175388,292.667011 C152.31024,288.598174 150.394557,284.819341 147.445993,281.400814 C144.462118,277.982288 140.224661,275.328317 134.698311,273.430112" id="s"></path>
        <path d="M406.775717,165.508479 C408.725634,167.891877 411.065535,169.694816 413.822008,170.978861 C416.569619,172.245316 419.654033,172.975287 423.030935,173.133594 C426.425563,173.283106 429.988594,172.957697 433.764342,172.157368 C437.868032,171.30427 441.72355,169.897097 445.375212,167.97103 C449.018012,166.053758 452.120153,163.635181 454.681635,160.732888 C457.25198,157.813005 459.086675,154.426997 460.176856,150.557273 C461.267037,146.669959 461.337943,142.413263 460.354121,137.74321 C459.556428,133.996614 458.12058,130.927219 456.064304,128.535026 C453.990301,126.116449 451.526315,124.295919 448.672345,123.055849 C445.800649,121.833368 442.645329,121.138576 439.215247,121.050628 C435.785166,120.989064 432.248725,121.314473 428.588199,122.062033 C424.37815,122.950311 420.46059,124.348688 416.808927,126.221986 C413.139537,128.08649 410.117166,130.443503 407.706359,133.319412 C405.313279,136.19532 403.620396,139.554944 402.636575,143.398284 C401.652753,147.250418 401.688206,151.683011 402.742934,156.669678 C403.487448,160.196403 404.834663,163.16026 406.775717,165.508479" id="dot"></path>
        <path d="M177.665756,51.3545824 C179.994546,51.2309681 181.970488,51.4958559 183.620048,52.1845644 C185.260786,52.8732729 186.610425,54.0829276 187.660145,55.8488468 C188.727507,57.614766 189.57434,60.0164161 190.218285,63.1332635 C190.315318,63.5924025 190.394709,64.3164294 190.509384,65.3494921 C190.615238,66.3737253 190.70345,67.6098687 190.756377,69.0667521 C190.826946,70.488317 190.888694,72.0246668 190.9328,73.613994 C190.994548,75.2386397 191.00337,76.8014782 190.968085,78.3025095 L190.915158,220.282414 L241.672188,209.510307 L241.672188,124.887458 C241.672188,73.7817564 262.102026,49.1030354 267.632901,43.9730401 C271.099622,40.7678967 274.460489,38.4545426 278.306521,37.6422197 C281.296898,37.0064888 283.810933,37.1212736 285.901551,37.9512556 C287.965705,38.772408 289.703477,40.0173811 291.167791,41.6861747 C292.614464,43.363798 293.770037,45.3151387 294.643333,47.5931745 C295.498987,49.8270623 296.169396,52.0168021 296.610455,54.1359052 C297.192653,56.8995687 297.598427,60.1047121 297.836598,63.7336761 C298.065949,67.3361512 298.22473,70.9297968 298.286478,74.5852496 C298.365869,78.2230432 298.401153,81.7283928 298.409974,85.0836393 C298.418796,88.456545 298.436438,91.3085045 298.45408,93.6306883 L298.648146,121.814759 C298.648146,139.915431 299.644939,153.866193 301.700272,163.667044 C303.984956,174.659891 309.242375,182.518232 317.498993,187.215577 C325.720327,191.904092 336.341019,192.875348 349.35225,190.111684 C355.51825,188.796074 361.066768,186.9242 365.962519,184.496061 C370.867091,182.067922 375.215929,179.295429 378.98257,176.160923 C382.775675,173.017586 386.065972,169.688829 388.897569,166.130501 L380.78209,152.259206 C379.741191,153.142166 378.762041,153.928 377.818176,154.625538 C375.180645,156.568049 372.093234,157.927807 368.564765,158.678322 C364.701091,159.508304 361.481363,158.793107 358.879117,156.559219 C356.276871,154.334161 353.524665,150.493287 352.466124,145.478076 C351.486974,140.701265 350.71071,134.944368 350.48136,129.346404 C350.234367,123.783759 350.119692,117.708997 350.146155,111.219244 L350.119692,73.0577295 C350.040301,69.9320525 350.022659,66.6474428 350.040301,63.1509227 C350.057943,59.6632323 350.022659,56.2108602 349.925626,52.7319994 C349.837414,49.2619681 349.65217,45.8537441 349.35225,42.4984976 C349.061151,39.1255919 348.611271,35.9999149 347.993789,33.1038074 C346.908785,27.8855161 345.215119,23.0380679 342.895151,18.6144403 C340.584003,14.1731534 337.54952,10.4735527 333.738773,7.47149004 C329.972132,4.51357536 325.402764,2.49159787 320.065955,1.42321675 C314.711503,0.337176432 308.44847,0.575575525 301.285677,2.11192524 C293.78768,3.71008212 287.065946,5.91748113 281.191044,8.88422541 C253.951262,22.6672248 241.495765,56.4316001 241.495765,56.4316001 L239.58157,18.7822026 L162.43159,35.0728073 L162.43159,54.1359052 L169.373853,52.5907258 C172.567118,51.9196765 175.319324,51.5135151 177.665756,51.3545824" id="n"></path>
        <path d="M52.5513009,122.363809 C53.6851346,113.525426 55.5453305,105.345969 58.1407468,97.8781507 C60.736163,90.4191182 64.0756576,84.0670799 68.1769466,78.8483928 C72.2959519,73.673634 77.097029,70.493222 82.6333264,69.3247281 C87.9570299,68.2177339 92.4835067,69.2895855 96.2481889,72.5666398 C99.9774388,75.7997658 102.581713,80.9042392 104.052154,87.88006 C105.566885,95.0667368 105.416297,101.849273 103.591534,108.262811 C101.749054,114.641206 98.5867209,120.466104 94.0868184,125.737505 C89.6134901,131.044049 83.9708958,135.551097 77.1856097,139.285006 C70.4003237,143.027701 62.7912366,145.786401 54.3849226,147.55232 L51.3997511,148.176103 C51.0277119,139.803361 51.4086091,131.219763 52.5513009,122.363809 M14.8867626,218.514165 C20.7330926,226.465195 27.7132564,232.623948 35.853828,236.98164 C44.0032578,241.339331 52.9676305,243.983818 62.7558043,244.915098 C72.5705523,245.863951 82.6510425,245.231383 93.0504235,243.043751 C104.681077,240.583764 114.460393,237.24521 122.414945,232.966589 C130.351781,228.687969 136.667589,224.075493 141.335795,219.120376 C146.012859,214.138902 149.210624,209.104714 150.893659,204.00024 C152.603267,198.913338 153.019597,194.318434 152.151505,190.197955 C151.549156,187.342613 150.583626,184.689341 149.272631,182.255711 C147.952777,179.830866 146.446904,177.898019 144.755012,176.509884 C143.054261,180.463434 140.857459,184.434557 138.164604,188.405679 C135.471749,192.394372 132.273983,196.128281 128.553591,199.607406 C124.850916,203.121674 120.661046,206.187872 116.028272,208.832358 C111.38664,211.494416 106.293247,213.400906 100.756949,214.551828 C88.3645014,217.178743 78.3460177,215.553394 70.6926402,209.702139 C63.0569788,203.894812 57.8395722,194.371148 55.0581364,181.183859 C54.659523,179.312512 54.2520515,177.230308 53.8357219,174.972392 C53.4193924,172.670547 53.1359339,170.41263 52.9942047,168.110785 C55.1467171,167.908714 57.3258038,167.548502 59.5403227,167.082861 C61.7459836,166.608435 63.8010572,166.177938 65.6789693,165.782582 C80.2859363,162.716384 93.3958885,157.989694 105.008826,151.620085 C116.612905,145.250475 126.232776,137.95837 133.859579,129.691056 C141.477524,121.441314 146.951815,112.559003 150.273593,103.096838 C153.586514,93.6258872 154.277444,84.2867216 152.346383,75.1232693 C149.697818,62.489478 143.1517,53.6247385 132.699171,48.4763368 C122.246641,43.3367207 108.879805,42.4932966 92.6075197,45.9109216 C80.1087748,48.5554078 68.9387412,52.711029 59.0885609,58.4217135 C49.2560967,64.1411837 40.7169116,70.8710058 33.4532895,78.6199654 C26.1808092,86.421639 20.1484596,94.9349518 15.3473825,104.221403 C10.5285893,113.481498 6.87020398,122.978806 4.35451045,132.686969 C1.82995884,142.412704 0.430382864,152.07694 0.155782513,161.723604 C-0.127675912,171.396625 0.625260531,180.419506 2.38801762,188.80982 C4.885995,200.670472 9.0581487,210.563135 14.8867626,218.514165" id="e"></path>
    </g>
</svg>
