<?xml version="1.0" encoding="UTF-8"?>
<svg width="1270px" height="676px" viewBox="0 0 1270 676" version="1.1" xmlns="http://www.w3.org/2000/svg" xmlns:xlink="http://www.w3.org/1999/xlink">
    <title>enspiral-text-logo</title>
    <g id="enspiral-text-logo" stroke="none" stroke-width="1" fill="none" fill-rule="evenodd">
        <path d="M1244.07516,334.318625 C1240.55805,336.867094 1236.47588,338.654481 1231.86327,339.634661 C1226.9739,340.684031 1222.81102,339.726914 1219.42075,336.809436 C1216.03048,333.868896 1213.65498,329.164031 1212.2712,322.614121 C1210.96814,316.364031 1210.16093,309.618085 1209.83805,302.318625 C1209.52669,295.042229 1209.37678,287.154661 1209.41138,278.655923 L1209.43444,32.4346613 L1104.00165,54.8288956 L1104.00165,79.7254721 L1114.10327,77.2346613 C1118.27768,76.3467334 1121.93318,75.8162829 1125.04669,75.6087154 C1128.14868,75.3896163 1130.7894,75.7586253 1132.92273,76.6580847 C1135.07913,77.5806073 1136.84345,79.1719586 1138.2157,81.4436703 C1139.61102,83.715382 1140.71805,86.9096163 1141.54832,90.9802469 C1141.68669,91.5568235 1141.81354,92.5139406 1141.96345,93.8861928 C1142.0557,95.1892559 1142.18255,96.8036703 1142.2748,98.68331 C1142.36705,100.528355 1142.41318,102.546373 1142.41318,104.668175 C1142.41318,106.801508 1142.39012,108.842589 1142.33246,110.837544 L1142.10183,292.482229 C1142.0903,316.1334 1143.40489,334.35322 1146.08021,347.130157 C1149.08994,361.521508 1155.96273,371.77304 1166.73318,377.896283 C1177.4921,384.031058 1191.37606,385.276463 1208.38507,381.678625 C1216.44561,379.98349 1223.68741,377.550337 1230.11048,374.344571 C1236.48741,371.161869 1242.18399,367.540968 1247.13102,363.447274 C1252.04345,359.365112 1256.36777,354.994661 1260.0694,350.347454 C1263.75949,345.700247 1266.93066,341.110697 1269.6175,336.624932 L1255.87192,323.824932 C1251.52453,328.241508 1247.59228,331.735562 1244.07516,334.318625" id="l" fill="#1A1919"></path>
        <path d="M925.42669,296.362544 C926.210834,285.430652 927.825249,274.706328 930.223807,264.17804 C932.610834,253.661283 935.885789,244.020923 940.071735,235.222364 C944.257681,226.4584 949.458402,219.089751 955.650834,213.035697 C961.843267,207.027769 969.258042,203.107049 977.90669,201.273535 C983.660924,200.039661 989.322906,199.935878 994.858042,200.8584 C1000.40471,201.803986 1005.04038,204.064166 1008.81119,207.662004 L1008.74201,285.050112 C1008.76507,297.469571 1007.60038,310.015878 1005.19029,322.642905 C1002.79174,335.292995 999.528312,346.847589 995.388492,357.341283 C991.283267,367.881103 986.347771,376.691193 980.605069,383.829211 C974.873897,390.932634 968.785249,395.210833 962.281465,396.594616 C958.822005,397.332634 955.454798,397.263445 952.191375,396.329391 C948.91642,395.441463 945.872096,393.434977 943.012276,390.309932 C940.198582,387.219481 937.569393,382.895157 935.124708,377.325427 C932.691555,371.801824 930.569753,364.721463 928.782366,356.142004 C927.041105,347.873896 925.853357,338.579481 925.207591,328.247229 C924.561825,317.903445 924.642546,307.317499 925.42669,296.362544 M861.461285,369.991373 C863.905969,381.603625 867.480744,392.097319 872.231735,401.460923 C876.959663,410.859121 882.725429,418.642905 889.505969,424.789211 C896.28651,430.900923 904.070294,435.202184 912.868852,437.6584 C921.644348,440.114616 931.307771,440.241463 941.824528,438.015878 C952.629573,435.721103 961.808672,432.273175 969.361825,427.729751 C976.914978,423.186328 983.349573,417.409031 988.919303,410.616959 C1010.10273,384.72867 1015.78777,354.965788 1015.78777,354.965788 C1015.78777,354.965788 1016.66417,366.220562 1017.16002,370.694797 C1017.65588,375.249751 1018.3939,379.804706 1019.36255,384.486508 C1021.77264,396.075697 1027.58453,404.055517 1036.77516,408.425968 C1045.95426,412.773355 1057.11678,413.557499 1070.22813,410.732274 C1078.13876,409.071733 1085.3575,406.684706 1091.84975,403.536598 C1098.33047,400.434616 1104.23462,396.940562 1109.52759,393.065968 C1114.80903,389.260562 1119.50237,385.212995 1123.63065,381.107769 C1127.72435,376.979481 1131.34525,373.070292 1134.48183,369.391733 L1121.013,353.582004 C1116.94237,357.16831 1113.19462,360.281824 1109.75822,362.911013 C1106.33336,365.517139 1102.51642,367.269932 1098.33047,368.15786 C1093.74092,369.161103 1089.58957,368.134797 1085.96867,365.125067 C1082.30165,362.103806 1079.73011,356.891553 1078.17336,349.453715 C1077.56219,346.536238 1077.10092,342.915337 1076.77804,338.487229 C1076.47822,334.116779 1076.23606,329.515697 1076.06309,324.764706 C1075.91318,320.04831 1075.82092,315.516418 1075.83246,311.284346 C1075.85552,307.029211 1075.90165,303.615878 1075.9593,301.009751 L1075.9593,155.101283 C1075.9593,155.101283 1051.59318,157.223085 1031.3784,176.296238 C1031.3784,176.296238 1023.20255,174.105247 1018.01336,173.332634 C1012.78957,172.536959 1007.30056,171.983445 1001.51174,171.706688 C995.757501,171.4184 989.772636,171.429932 983.580204,171.752815 C977.399303,172.064166 971.437501,172.84831 965.671735,174.070652 C950.669213,177.253355 937.361825,182.696238 925.738042,190.376238 C914.125789,198.090833 904.035699,207.2584 895.467771,217.855878 C886.934438,228.464887 879.900204,240.180923 874.388132,253.03858 C868.87606,265.907769 864.724708,279.065247 861.991735,292.534076 C859.235699,305.991373 857.851915,319.356418 857.840302,332.652274 C857.828852,345.936598 859.039663,358.367589 861.461285,369.991373" id="a" fill="#1A1919"></path>
        <path d="M596.754991,432.172826 C596.44364,424.919493 596.305261,417.020394 596.328324,408.510124 L596.708865,256.951205 L491.668144,279.230124 L491.645081,304.172826 L500.720397,302.108682 C504.906342,301.209223 508.515712,300.678772 511.560036,300.482736 C514.604361,300.275169 517.210487,300.621115 519.34382,301.5667 C521.488685,302.454628 523.264541,304.069043 524.636793,306.375349 C526.009045,308.647061 527.139135,311.829763 527.992469,315.900394 C528.107784,316.453907 528.246162,317.422556 528.338415,318.725619 C528.488324,320.109403 528.60364,321.712286 528.707424,323.580394 C528.776613,325.448502 528.845802,327.443457 528.926523,329.565259 C528.98418,331.663998 529.007243,333.71661 528.961117,335.723097 L529.018775,422.359493 C528.926523,434.190844 529.237874,444.673007 529.929766,453.771385 C530.633189,462.869763 531.647964,470.630484 532.97409,477.007421 C535.995352,491.398772 542.879676,501.650304 553.638595,507.785079 C564.409045,513.885259 578.281478,515.165259 595.290487,511.555889 C603.351027,509.837691 610.569766,507.427601 616.900577,504.244898 C623.242919,501.085259 628.916433,497.441295 633.932649,493.33607 C638.925802,489.242376 643.284721,484.848862 646.963279,480.224718 C650.676433,475.577511 653.870667,470.987961 656.545982,466.502196 L642.788865,453.702196 C638.441478,458.118772 634.509225,461.612826 630.992108,464.161295 C627.474991,466.732826 623.381297,468.531745 618.780216,469.500394 C613.879315,470.549763 609.716433,469.569583 606.337694,466.663637 C602.947424,463.757691 600.560397,459.018232 599.188144,452.502916 C597.908144,446.252826 597.077874,439.495349 596.754991,432.172826" id="i" fill="#1A1919"></path>
        <path d="M648.58002,270.715197 C656.94038,268.962404 663.167407,268.881683 667.272632,270.519161 C671.377858,272.110512 674.007047,275.70835 675.148668,281.243485 C675.829029,284.414656 676.244164,288.12781 676.451731,292.325287 C676.670831,296.534296 676.809209,299.901503 676.88993,302.484566 L676.88993,489.698981 L743.53065,475.53826 L744.2802,394.863665 C745.156596,321.361683 757.945065,256.95808 789.76056,249.635557 C814.6802,243.915918 820.584344,289.027269 820.584344,289.027269 C857.842722,280.194116 863.043443,244.527089 857.842722,229.686008 C845.134975,193.350152 790.856056,190.132855 760.435876,234.690692 C740.267227,264.246008 740.924524,290.249611 740.924524,290.249611 L739.067948,226.814656 L639.527768,247.859701 L639.677677,272.733215 L648.58002,270.715197 Z" id="r" fill="#1A1919"></path>
        <path d="M333.714978,529.075804 C331.235699,528.037966 327.637861,526.977065 326.058042,525.927696 L326.207951,442.450939 C326.207951,373.054182 361.05624,339.220669 374.640384,337.168056 C379.299123,336.453101 383.392816,336.764453 387.071375,338.828597 C390.738402,340.938867 393.955699,344.052381 396.700204,348.180669 C399.433177,352.285894 401.797141,357.117606 403.803627,362.72193 C405.787051,368.303191 407.412996,374.103552 408.692996,380.203732 C410.445789,388.62175 411.610474,397.962291 412.187051,408.248417 C412.752096,418.51148 412.63678,428.970579 411.841105,439.591119 C411.05696,450.234723 409.488672,460.693822 407.113177,470.968417 C404.749213,481.277606 401.56651,490.606615 397.542005,499.059228 C393.494438,507.500309 388.512816,514.626795 382.562546,520.427155 C376.64687,526.227516 369.71642,529.975264 361.782726,531.670399 C358.334798,532.419948 354.898402,532.708237 351.485069,532.604453 C348.083267,532.477606 344.900564,532.154723 341.902366,531.566615 C338.938762,530.990038 336.205789,530.1713 333.714978,529.075804 M372.507051,559.184633 C387.78633,555.955804 401.243627,550.316885 412.878942,542.290939 C424.537321,534.288056 434.54669,524.8322 442.953177,513.865714 C451.348132,502.899228 458.128672,490.883372 463.283267,477.829678 C468.460924,464.74139 472.277861,451.480128 474.711014,437.953642 C477.155699,424.484813 478.354978,411.269678 478.274258,398.319768 C478.2166,385.369858 477.051915,373.492381 474.791735,362.768056 C472.070294,349.702831 468.103447,338.482651 462.902726,329.130579 C457.725069,319.755444 451.624888,312.283011 444.544528,306.621029 C437.521825,300.993642 429.611195,297.29202 420.904888,295.493101 C412.187051,293.705714 402.984888,293.844092 393.332996,295.873642 C382.389573,298.203011 373.129753,301.789318 365.565069,306.667155 C358.000384,311.544993 351.577321,317.483732 346.272816,324.529498 C340.968312,331.586795 336.459483,339.589678 332.780924,348.561209 C329.090834,357.509678 325.700564,367.196164 322.587051,377.563011 L319.727231,316.065354 L223.265969,336.556885 L223.265969,361.522651 L232.329753,359.412381 C236.504168,358.50139 240.1366,357.982471 243.169393,357.774903 C246.202186,357.590399 248.808312,357.936345 250.964708,358.870399 C253.109573,359.769858 254.873897,361.384273 256.257681,363.667516 C257.629933,365.939228 258.748492,369.133462 259.590294,373.215624 C259.717141,373.769137 259.843987,374.714723 259.959303,376.040849 C260.109213,377.413101 260.201465,379.027516 260.31678,380.884092 C260.385969,382.763732 260.46669,384.747155 260.535879,386.868957 C260.605069,388.990759 260.6166,391.008777 260.570474,393.003732 L260.535879,675.503191 L354.932996,655.253822 L354.944528,636.088417 C354.944528,636.088417 346.641825,637.518327 343.609033,637.702831 C340.564708,637.92193 337.981645,637.564453 335.83678,636.630399 C333.691915,635.754002 331.939123,634.162651 330.543807,631.856345 C329.148492,629.538507 328.041465,626.355804 327.199663,622.3313 C327.072816,621.754723 326.945969,620.774543 326.819123,619.47148 C326.680744,618.122291 326.600024,616.507876 326.484708,614.628237 C326.392456,612.748597 326.323267,610.765173 326.254078,608.63184 C326.19642,606.52157 326.184888,604.503552 326.219483,602.543191 L326.207951,558.192921 C332.631014,560.164813 338.881105,561.583191 346.97624,561.767696 C355.071375,561.9522 363.581645,561.064273 372.507051,559.184633" id="p" fill="#1A1919"></path>
        <path d="M177.082096,355.100755 C169.863357,352.598413 160.857231,351.295349 150.08678,351.133908 C139.281735,351.030124 126.481735,352.517692 111.617591,355.677331 C96.0615552,358.986881 82.4658795,363.576431 70.8305642,369.469043 C59.1952489,375.327061 49.6932669,382.292106 42.3361498,390.294989 C34.9790327,398.297872 29.9051588,407.131025 27.1375912,416.840575 C24.3469606,426.527061 24.0702038,436.824719 26.3534471,447.698953 C28.1754291,456.428322 31.1390327,463.993007 35.2673209,470.404539 C39.3956092,476.781476 44.4810146,482.305079 50.5811948,486.952286 C56.6698435,491.564899 63.6925462,495.451025 71.6377714,498.599133 C79.5945282,501.781836 88.3354291,504.491746 97.814348,506.7058 C107.350925,509.092827 115.59597,511.260755 122.561015,513.278773 C129.52606,515.308322 135.430204,517.568503 140.250384,520.093908 C145.070564,522.653908 148.852907,525.663638 151.620474,529.203818 C154.37651,532.68634 156.279213,536.987602 157.363177,542.061476 C158.493267,547.435169 158.401015,552.439854 157.097952,557.029404 C155.80642,561.630485 153.580834,565.73571 150.409663,569.345079 C147.273087,573.000575 143.260114,576.12562 138.382276,578.743277 C133.51597,581.372467 128.061555,583.344358 122.007501,584.601295 C113.935429,586.331025 106.78588,586.146521 100.558852,584.047782 C94.3202939,581.960575 88.8889426,578.466521 84.27633,573.611746 C79.6521858,568.756971 75.7660597,562.87589 72.6756092,555.956971 C69.5736273,549.014989 67.1866002,541.577151 65.5029966,533.5858 C59.610384,534.842737 53.9368705,536.733908 48.5516453,539.340034 C43.1548885,541.934629 38.5538074,545.198052 34.7945282,549.084178 C31.0121858,552.981836 28.2676813,557.652106 26.5148885,563.014268 C24.7966903,568.411025 24.6352489,574.5458 26.0997534,581.522376 C27.7026363,589.236971 31.1390327,595.70616 36.374348,600.97607 C41.5981318,606.222917 48.3094831,610.189764 56.4622759,612.830485 C64.6150687,615.528863 74.0709245,616.843458 84.8183119,616.832001 C95.5887624,616.843458 107.293267,615.471205 119.989483,612.784358 C137.701916,609.025079 152.900474,603.928142 165.562096,597.539674 C178.223717,591.128142 188.394528,583.65571 196.074528,575.007061 C203.754528,566.41607 208.874528,556.879494 211.411465,546.305079 C213.93687,535.730665 213.93687,524.464358 211.434528,512.379313 C209.693267,504.122737 207.00642,496.823277 203.373988,490.561656 C199.730024,484.300034 195.025159,478.764899 189.305519,473.979313 C183.562816,469.239854 176.73615,465.14616 168.779393,461.721295 C160.834168,458.331025 151.6666,455.5058 141.265159,453.130304 C131.774708,451.054629 123.552726,449.117331 116.57615,447.329944 C109.57651,445.588683 103.683898,443.513007 98.921375,441.183638 C94.1473209,438.877331 90.3995732,436.109764 87.7011948,432.892467 C84.9912849,429.675169 83.1347083,425.569944 82.0968705,420.64598 C81.1858795,416.298593 81.197411,412.031926 82.1429966,407.892106 C83.0655191,403.752286 84.8759696,399.923818 87.5282218,396.406701 C90.1804741,392.889584 93.5938074,389.810665 97.7797534,387.193007 C101.977231,384.529223 106.958852,382.614989 112.713087,381.392647 C119.055429,380.043458 124.70588,380.43553 129.664438,382.568863 C134.611465,384.713728 138.981916,387.96562 142.764258,392.289944 C146.535069,396.671926 149.613988,401.734268 152.024078,407.500034 C154.457231,413.300395 156.279213,419.146881 157.513087,425.120214 C173.230564,421.753007 185.038852,416.460034 193.018672,409.160575 C200.963898,401.872647 203.69687,392.266881 201.217591,380.343277 C200.087501,375.004178 197.585159,370.04562 193.733627,365.559854 C189.83597,361.074088 184.300834,357.591566 177.082096,355.100755" id="s" fill="#1A1919"></path>
        <path d="M531.958046,215.061692 C534.494983,218.186737 537.539307,220.550701 541.125613,222.234304 C544.700388,223.894845 548.713361,224.851962 553.106875,225.05953 C557.523451,225.255566 562.159127,224.828899 567.071559,223.77953 C572.410658,222.660971 577.426875,220.815926 582.177866,218.290521 C586.917325,215.776647 590.953361,212.605476 594.285974,208.80007 C597.630118,204.971602 600.017145,200.531962 601.435523,195.458088 C602.853902,190.361151 602.946154,184.77989 601.666154,178.656647 C600.628316,173.744214 598.760208,169.71971 596.084893,166.583133 C593.386514,163.411962 590.180749,161.024935 586.467595,159.398989 C582.731379,157.796106 578.626154,156.885115 574.163451,156.7698 C569.700749,156.689079 565.099667,157.115746 560.337145,158.095926 C554.859667,159.260611 549.762731,161.094124 545.01174,163.55034 C540.237685,165.995025 536.305433,169.085476 533.168857,172.856286 C530.055343,176.627097 527.852821,181.032142 526.572821,186.071422 C525.292821,191.122232 525.338947,196.934124 526.711199,203.472503 C527.679848,208.096647 529.43264,211.982773 531.958046,215.061692" id="dot" fill="#1A1919"></path>
        <path d="M233.218779,66.333863 C236.263103,66.1724216 238.846166,66.5183676 241.002563,67.417827 C243.147428,68.3172865 244.911752,69.8971063 246.284004,72.2034126 C247.67932,74.5097189 248.786347,77.6462955 249.628148,81.7169261 C249.754995,82.3165657 249.858779,83.2621513 250.008689,84.6113405 C250.147067,85.9489982 250.262383,87.5634126 250.331572,89.4661153 C250.423824,91.3226919 250.504545,93.3291784 250.562202,95.404854 C250.642923,97.5266558 250.654455,99.5677369 250.608329,101.528097 L250.539139,286.955124 L316.891572,272.886656 L316.891572,162.368458 C316.891572,95.6239531 343.598599,63.3933225 350.828869,56.6935027 C355.360761,52.5075567 359.754274,49.4862955 364.782022,48.4253946 C368.691211,47.5951243 371.977698,47.7450342 374.710671,48.8289982 C377.409049,49.9014306 379.680761,51.5273766 381.594995,53.706836 C383.486166,55.897827 384.996797,58.4462955 386.138419,61.4214306 C387.256977,64.3389081 388.133374,67.1987279 388.70995,69.9662955 C389.471031,73.5756648 390.001482,77.7616108 390.312833,82.5010703 C390.612653,87.2059351 390.82022,91.8992685 390.900941,96.6733225 C391.004725,101.424313 391.050851,106.002332 391.062383,110.384313 C391.073914,114.789359 391.096977,118.514043 391.12004,121.546836 L391.373734,158.355485 C391.373734,181.995124 392.676797,200.214944 395.363644,213.014944 C398.35031,227.371701 405.223103,237.634764 416.016617,243.769539 C426.764004,249.892782 440.647968,251.16125 457.656977,247.551881 C465.717518,245.833683 472.970851,243.388998 479.370851,240.217827 C485.782383,237.046656 491.467428,233.425755 496.391392,229.332061 C501.34995,225.226836 505.651211,220.879449 509.352833,216.232241 L498.743824,198.116205 C497.383103,199.269359 496.103103,200.295665 494.869229,201.206656 C491.421301,203.743593 487.385265,205.519449 482.772653,206.499629 C477.721842,207.583593 473.512833,206.649539 470.111031,203.732061 C466.709229,200.826115 463.111392,195.809899 461.727608,189.259989 C460.447608,183.021431 459.432833,175.502872 459.133013,168.191881 C458.81013,160.927016 458.66022,152.993323 458.694815,144.517647 L458.66022,94.6783676 C458.556437,90.5962054 458.533374,86.3064757 458.556437,81.7399892 C458.5795,77.1850342 458.533374,72.6762054 458.406527,68.132782 C458.291211,63.6008901 458.049049,59.1497189 457.656977,54.7677369 C457.276437,50.3626919 456.688329,46.2805297 455.881121,42.4981874 C454.462743,35.6830522 452.248689,29.3522414 449.215896,23.5749441 C446.194635,17.7745838 442.227788,12.9428721 437.246166,9.02215134 C432.322202,5.15908827 426.348869,2.51836755 419.372292,1.12305224 C412.372653,-0.295326142 404.185265,0.0160252094 394.821662,2.0225117 C385.01986,4.1097189 376.232833,6.99260179 368.552833,10.8671964 C332.943464,28.8679171 316.660941,72.9644937 316.660941,72.9644937 L314.158599,23.7940432 L213.303824,45.0697189 L213.303824,69.9662955 L222.379139,67.9482775 C226.553554,67.0718811 230.151392,66.5414306 233.218779,66.333863" id="n" fill="#1A1919"></path>
        <path d="M69.1874236,159.351705 C70.6634596,147.750984 73.0850812,137.015129 76.46382,127.213327 C79.8425587,117.423057 84.1899461,109.085759 89.5290452,102.23603 C94.8912074,95.4439575 101.141297,91.269543 108.348505,89.7358494 C115.278955,88.2828764 121.171568,89.6897232 126.072469,93.9909845 C130.927243,98.2345881 134.317514,104.934408 136.231748,114.090444 C138.20364,123.523237 138.007604,132.425579 135.632108,140.843597 C133.23355,149.215489 129.116793,156.860894 123.258775,163.779813 C117.435352,170.744858 110.089766,176.660534 101.256613,181.561435 C92.4234596,186.473867 82.517874,190.094768 71.5744506,192.412606 L67.6883245,193.231345 C67.2040002,182.241795 67.699856,170.975489 69.1874236,159.351705 M20.1553515,285.552786 C27.7661623,295.988822 36.8530092,304.072426 47.4504866,309.792066 C58.0594956,315.511705 69.7294056,318.982696 82.4717479,320.205039 C95.2486848,321.450444 108.371568,320.620174 121.909586,317.748822 C137.050487,314.519993 149.781297,310.138012 160.136613,304.522156 C170.468865,298.9063 178.690847,292.852246 184.767964,286.348462 C190.856613,279.810084 195.019496,273.202516 197.210487,266.502696 C199.436072,259.825939 199.978054,253.794948 198.847964,248.38666 C198.06382,244.638912 196.806883,241.15639 195.100216,237.962156 C193.382018,234.779453 191.421658,232.242516 189.219135,230.420534 C187.005081,235.609723 184.145261,240.821975 180.639676,246.034228 C177.13409,251.269543 172.971207,256.170444 168.127964,260.73693 C163.307784,265.349543 157.85337,269.374048 151.822379,272.845039 C145.779856,276.339093 139.149225,278.841435 131.942018,280.352066 C115.809406,283.799993 102.767243,281.66666 92.8040002,273.98666 C82.86382,266.364318 76.0717479,253.864138 72.450847,236.555309 C71.9319281,234.099093 71.4014776,231.36612 70.8594956,228.402516 C70.3175137,225.381255 69.9485047,222.417651 69.7640002,219.39639 C72.5661623,219.131165 75.4029191,218.658372 78.285802,218.047201 C81.1571533,217.424498 83.8324686,216.859453 86.2771533,216.340534 C105.292649,212.31603 122.359315,206.112066 137.477153,197.751705 C152.58346,189.391345 165.106703,179.820174 175.035352,168.969003 C184.952469,158.140894 192.078955,146.482516 196.403279,134.063057 C200.716072,121.632066 201.615532,109.374048 199.101658,97.3466602 C195.65373,80.7643178 187.131928,69.1290025 173.524721,62.371525 C159.917514,55.6255791 142.516433,54.5185521 121.333009,59.0043178 C105.062018,62.4753088 90.5207569,67.9297232 77.6976938,75.4252187 C64.8976938,82.9322457 53.7812974,91.7653989 44.3254416,101.93621 C34.8580542,112.17621 27.0050812,123.350264 20.7549911,135.539093 C14.481838,147.693327 9.71931547,160.158912 6.44436051,172.901255 C3.15787403,185.66666 1.33589204,198.351345 0.978414567,211.012966 C0.609405558,223.709183 1.58958574,235.552066 3.88436051,246.564678 C7.1362524,262.132246 12.5676038,275.11675 20.1553515,285.552786" id="e" fill="#1A1919"></path>
    </g>
</svg>