<?xml version="1.0" encoding="UTF-8"?>
<svg width="1280px" height="1210px" viewBox="0 0 1280 1210" version="1.1" xmlns="http://www.w3.org/2000/svg" xmlns:xlink="http://www.w3.org/1999/xlink">
    <title>enspiral-logo-transparent-text</title>
    <g id="enspiral-logo-transparent-text" stroke="none" stroke-width="1" fill="none" fill-rule="evenodd">
        <path d="M1123.20562,702.181333 L1112.72386,692.421243 C1109.39716,695.783149 1106.40489,698.449793 1103.71184,700.429973 C1101.0276,702.36615 1097.91211,703.747876 1094.40939,704.487143 C1090.66025,705.279215 1087.47436,704.557549 1084.89573,702.322146 C1082.30829,700.086742 1080.49533,696.496014 1079.44803,691.488358 C1078.45354,686.727124 1077.83748,681.569854 1077.59106,675.998946 C1077.34464,670.45444 1077.23023,664.434691 1077.26543,657.957301 L1077.26543,470.024965 L996.808495,487.124925 L996.808495,506.143459 L1004.518,504.216083 C1007.70389,503.547222 1010.48494,503.151186 1012.86996,502.97517 C1015.23738,502.825556 1017.25276,503.098381 1018.88971,503.784844 C1020.52666,504.488908 1021.87318,505.694618 1022.92928,507.428376 C1024.00297,509.162134 1024.83025,511.608757 1025.48151,514.71544 C1025.56952,515.164281 1025.66633,515.885947 1025.77194,516.933242 C1025.85114,517.910131 1025.93915,519.151045 1026.02716,520.594376 C1026.08876,522.002505 1026.13277,523.533844 1026.11517,525.170793 C1026.11517,526.78134 1026.09757,528.347883 1026.06236,529.879223 L1025.88635,668.491861 C1025.86874,686.559908 1026.88084,700.465176 1028.93142,710.207665 C1031.21963,721.191066 1036.48251,729.014979 1044.68486,733.688206 C1052.89601,738.379033 1063.48337,739.32952 1076.47336,736.574869 C1082.63392,735.289952 1088.15202,733.432982 1093.04527,730.986359 C1097.92971,728.548537 1102.25971,725.785085 1106.04405,722.669601 C1109.8108,719.545316 1113.1111,716.209812 1115.92736,712.663089 C1118.73481,709.107564 1121.17263,705.622447 1123.20562,702.181333 L1123.20562,702.181333 Z M1020.07782,727.193213 L1009.78968,715.127313 C1006.6918,717.873164 1003.83154,720.24938 1001.2089,722.255963 C998.586257,724.253745 995.673191,725.591467 992.4785,726.260328 C988.96698,727.017197 985.825093,726.225125 983.04404,723.945717 C980.254186,721.639907 978.282806,717.653143 977.094697,711.994228 C976.637056,709.758824 976.285024,706.995372 976.0298,703.607063 C975.80098,700.271559 975.607362,696.768839 975.492951,693.142909 C975.36974,689.525779 975.299334,686.075864 975.308135,682.84597 C975.334537,679.598474 975.360939,677.002237 975.404943,675.004455 L975.404943,563.656703 C975.404943,563.656703 956.826449,565.267249 941.37224,579.832577 C941.37224,579.832577 935.150073,578.160425 931.189712,577.56197 C927.194148,576.954715 923.013767,576.549878 918.586963,576.321057 C914.195362,576.101037 909.618945,576.118639 904.910516,576.35626 C900.184485,576.593882 895.63447,577.201137 891.234069,578.125222 C879.801827,580.571845 869.6369,584.708222 860.765691,590.569556 C851.885681,596.466094 844.184979,603.462732 837.672385,611.55947 C831.133389,619.638607 825.7737,628.597824 821.566917,638.393117 C817.368934,648.223613 814.209446,658.247727 812.106054,668.544666 C810.011463,678.824003 808.946322,689.015332 808.946322,699.153857 C808.928965,709.301182 809.86185,718.788447 811.710018,727.659656 C813.566987,736.522064 816.295236,744.539595 819.912366,751.668245 C823.538297,758.8497 827.929897,764.799042 833.11357,769.472268 C838.288441,774.136694 844.228983,777.436994 850.935195,779.311565 C857.632605,781.186136 865.016478,781.265343 873.034009,779.58439 C881.289162,777.815429 888.294601,775.183989 894.050326,771.725274 C899.823652,768.257757 904.7345,763.839755 908.976487,758.664883 C925.143561,738.915882 929.491157,716.19221 929.491157,716.19221 C929.491157,716.19221 930.151217,724.781793 930.520851,728.187704 C930.899285,731.681623 931.471338,735.149139 932.219406,738.722265 C934.058774,747.55827 938.485577,753.648425 945.508618,756.98393 C952.505255,760.310633 961.015631,760.900287 971.030945,758.752891 C977.077096,757.476775 982.577597,755.655008 987.532449,753.269991 C992.487301,750.893774 996.984511,748.20953 1001.02408,745.270062 C1005.05485,742.348195 1008.64557,739.276715 1011.77866,736.143629 C1014.90294,732.984141 1017.6752,730.00947 1020.07782,727.193213 L1020.07782,727.193213 Z M808.946566,620.571492 C799.23048,592.840163 757.822705,590.38474 734.606188,624.399841 C719.213585,646.956298 719.706429,666.802107 719.706429,666.802107 L718.2895,618.388893 L642.312173,634.441556 L642.435384,653.433688 L649.229604,651.884747 C655.601385,650.547025 660.362619,650.476619 663.495704,651.752735 C666.619989,652.949644 668.635373,655.704295 669.506652,659.911079 C670.034701,662.357702 670.351529,665.173959 670.509944,668.36865 C670.659558,671.580943 670.782769,674.159578 670.844374,676.139758 L670.844374,819.011985 L721.695411,808.222201 L722.267463,746.651788 C722.953926,690.546672 732.714015,641.38539 756.986629,635.79688 C775.996362,631.431682 780.511174,665.860421 780.511174,665.860421 C808.946566,659.119007 812.906927,631.898125 808.946566,620.571492 L808.946566,620.571492 Z M655.310958,801.313571 L644.829202,791.544681 C641.493698,794.915388 638.501425,797.582031 635.80838,799.527009 C633.124135,801.480787 630.008651,802.853712 626.505932,803.592979 C622.75679,804.402653 619.570899,803.663386 616.992264,801.445583 C614.404828,799.21018 612.583062,795.601851 611.544568,790.638198 C610.550077,785.859362 609.934021,780.702092 609.687598,775.113583 C609.449977,769.577878 609.344367,763.549328 609.344367,757.063137 L609.643594,641.38539 L529.468284,658.379739 L529.468284,677.424676 L536.394516,675.849332 C539.589207,675.162869 542.335057,674.766833 544.66727,674.608419 C546.981881,674.458805 548.962061,674.714028 550.599011,675.435694 C552.244761,676.104555 553.582483,677.345468 554.64738,679.096828 C555.703476,680.830586 556.539552,683.277209 557.199613,686.366291 C557.296421,686.79753 557.384429,687.536798 557.472437,688.531288 C557.578047,689.578584 557.657254,690.819497 557.745262,692.227625 C557.806868,693.653355 557.868474,695.184695 557.921278,696.804043 C557.956482,698.396988 557.974083,699.963531 557.93888,701.49487 L557.982884,767.641701 C557.921278,776.662524 558.150099,784.653652 558.678147,791.597486 C559.223797,798.541319 559.998268,804.47306 561.01036,809.322302 C563.31617,820.323305 568.570249,828.147218 576.772597,832.820444 C585.001347,837.476069 595.597514,838.452958 608.569896,835.707107 C614.730458,834.378186 620.23096,832.547619 625.053799,830.118598 C629.88544,827.715979 634.233036,824.926124 638.052585,821.801839 C641.872133,818.668754 645.190035,815.315648 648.006292,811.777726 C650.83135,808.239803 653.269172,804.728283 655.310958,801.313571 L655.310958,801.313571 Z M520.095429,628.615425 C524.979875,626.186404 529.327471,623.422952 533.076613,620.307468 C536.860958,617.183183 540.152458,613.847679 542.977516,610.309756 L534.880778,596.483696 C533.851084,597.363776 532.865394,598.155848 531.923708,598.842311 C529.283467,600.787288 526.211987,602.142612 522.691666,602.881879 C518.845716,603.709154 515.615821,602.996289 513.037186,600.769686 C510.440949,598.551884 507.686298,594.714734 506.639003,589.715879 C505.644512,584.954644 504.878842,579.20772 504.650021,573.645613 C504.403599,568.092307 504.289188,562.037355 504.315591,555.577566 L504.289188,517.540498 C504.218782,514.425014 504.183579,511.159916 504.20118,507.665997 C504.236384,504.18088 504.192379,500.739766 504.095571,497.27225 C504.007563,493.813534 503.822746,490.407624 503.514718,487.080921 C503.241893,483.727815 502.77545,480.594729 502.168195,477.725668 C501.094497,472.497991 499.387141,467.683952 497.081331,463.27475 C494.775521,458.839146 491.748045,455.16041 487.954899,452.168137 C484.179355,449.228669 479.62934,447.195684 474.296054,446.130787 C468.962767,445.06589 462.714198,445.294711 455.567946,446.817249 C448.096065,448.418995 441.389853,450.619196 435.528519,453.576266 C408.334039,467.305517 395.907306,500.968587 395.907306,500.968587 L394.006333,463.424364 L317.025714,479.688246 L317.025714,498.680378 L323.960746,497.131437 C327.137836,496.462576 329.892487,496.048938 332.2247,495.908125 C334.548112,495.793715 336.537093,496.048938 338.174042,496.735401 C339.802191,497.421863 341.148714,498.627573 342.213611,500.396535 C343.260906,502.139094 344.105783,504.541713 344.757043,507.648396 C344.862652,508.097237 344.941859,508.818903 345.047469,509.848596 C345.153079,510.887091 345.241087,512.101602 345.302692,513.544933 C345.364298,514.979464 345.425904,516.502003 345.478708,518.086148 C345.531513,519.723097 345.540314,521.263237 345.513912,522.759374 L345.461107,664.276277 L396.100924,653.539298 L396.100924,569.210009 C396.100924,518.262164 416.474782,493.663921 422.001686,488.541854 C425.442799,485.355963 428.795905,483.058954 432.641856,482.24928 C435.616527,481.606821 438.142357,481.712431 440.219347,482.539706 C442.278734,483.366982 444.021293,484.599094 445.464625,486.271247 C446.907956,487.934598 448.060862,489.897177 448.940942,492.150183 C449.79462,494.385587 450.472281,496.568186 450.89472,498.680378 C451.484374,501.426229 451.889211,504.629721 452.126832,508.23805 C452.355653,511.828777 452.514068,515.419504 452.584474,519.063037 C452.65488,522.688967 452.690084,526.182886 452.698884,529.535991 C452.698884,532.889097 452.725287,535.722956 452.751689,538.046367 L452.945307,566.129728 C452.927705,584.180174 453.939798,598.085442 455.990385,607.845532 C458.260992,618.811331 463.515071,626.635245 471.73502,631.326072 C479.946169,635.999299 490.533534,636.967387 503.514718,634.195134 C509.675279,632.910217 515.210984,631.035646 520.095429,628.615425 L520.095429,628.615425 Z M519.259353,749.283227 C519.206548,739.399926 518.317667,730.3351 516.601511,722.141553 C514.524522,712.170244 511.505846,703.607063 507.527884,696.478413 C503.585124,689.32336 498.903097,683.602839 493.517006,679.281645 C488.157317,674.986853 482.128768,672.170597 475.45776,670.797671 C468.813154,669.433547 461.798914,669.539157 454.423842,671.105699 C446.07188,672.874661 439.013637,675.602909 433.249111,679.316848 C427.466984,683.048388 422.564937,687.589602 418.516568,692.949291 C414.468199,698.344183 411.027085,704.45194 408.219629,711.290163 C405.394571,718.137188 402.807135,725.521061 400.430919,733.432982 L398.265921,686.507104 L324.647209,702.128528 L324.647209,721.191066 L331.555839,719.580519 C334.75053,718.885256 337.513982,718.498021 339.819792,718.339606 C342.143204,718.198793 344.140986,718.462817 345.769135,719.166882 C347.414885,719.853344 348.761408,721.085456 349.808703,722.828015 C350.864799,724.561773 351.718477,726.999596 352.369737,730.11508 C352.457745,730.546319 352.563354,731.267985 352.642562,732.280077 C352.748171,733.327373 352.827378,734.550684 352.906586,735.976414 C352.968191,737.402144 353.020996,738.915882 353.082602,740.544031 C353.126606,742.163378 353.144207,743.694718 353.109004,745.226058 L353.082602,960.828116 L425.12597,945.373906 L425.134771,930.746973 C425.134771,930.746973 418.806994,931.829472 416.483582,931.979085 C414.168971,932.1375 412.188791,931.864675 410.53424,931.160611 C408.906092,930.482949 407.57717,929.268438 406.512273,927.517078 C405.447376,925.739316 404.602499,923.319096 403.95124,920.238815 C403.863232,919.798775 403.766423,919.059507 403.678415,918.056216 C403.555204,917.026522 403.493598,915.785609 403.414391,914.359879 C403.335184,912.934149 403.282379,911.402809 403.229574,909.792262 C403.18557,908.172915 403.18557,906.623973 403.194371,905.136638 L403.194371,871.288752 C408.114019,872.80249 412.875253,873.884988 419.053417,874.017 C425.23158,874.157813 431.717771,873.488952 438.538393,872.045621 C450.199457,869.581396 460.469993,865.269003 469.350003,859.152445 C478.247614,853.053489 485.895511,845.82803 492.302495,837.458467 C498.70948,829.088904 503.875551,819.927269 507.827111,809.955959 C511.76107,799.967049 514.682936,789.846126 516.531105,779.531585 C518.405675,769.234647 519.320959,759.166529 519.259353,749.283227 L519.259353,749.283227 Z M315.599984,836.323164 C314.279864,830.03059 312.238078,824.450881 309.448223,819.672045 C306.66717,814.89321 303.085243,810.660024 298.702443,807.016491 C294.319644,803.408162 289.11837,800.275077 283.063418,797.670039 C276.999665,795.091404 270.003027,792.926407 262.038301,791.104641 C254.821643,789.538098 248.53787,788.041961 243.204583,786.686638 C237.871297,785.357717 233.374087,783.764771 229.730555,781.987009 C226.087023,780.218048 223.244363,778.123457 221.167374,775.668033 C219.107986,773.203808 217.691057,770.079524 216.898985,766.31278 C216.194921,762.994878 216.203721,759.747382 216.916586,756.587893 C217.638252,753.419605 219.019978,750.497738 221.044163,747.822294 C223.068347,745.138049 225.673385,742.779434 228.868076,740.790453 C232.071568,738.757468 235.864714,737.296535 240.265115,736.354849 C245.114357,735.325155 249.409149,735.633183 253.202295,737.261331 C256.98664,738.898281 260.313343,741.371306 263.191206,744.671607 C266.060267,748.024713 268.436484,751.888265 270.275852,756.288666 C272.115219,760.706669 273.505746,765.177477 274.456233,769.736292 C286.451726,767.175259 295.463748,763.118089 301.545103,757.564783 C307.608856,751.993875 309.703447,744.654005 307.811274,735.562776 C306.957596,731.488005 305.039021,727.686058 302.090752,724.288949 C299.133683,720.847835 294.900497,718.198793 289.391194,716.29782 C283.890693,714.388046 277.017266,713.384754 268.788516,713.270344 C260.542164,713.182336 250.764473,714.335241 239.43784,716.73786 C227.556757,719.26369 217.180611,722.757609 208.2918,727.26362 C199.420591,731.725627 192.16873,737.041311 186.545017,743.157869 C180.938906,749.265626 177.066553,755.99824 174.94556,763.426117 C172.815765,770.801189 172.622148,778.651505 174.355906,786.977064 C175.755233,793.630471 178.008239,799.403797 181.150125,804.288243 C184.292012,809.163887 188.199568,813.379472 192.837591,816.917394 C197.475614,820.446516 202.844103,823.412386 208.925458,825.806205 C214.989211,828.244027 221.66902,830.312215 228.903279,831.993169 C236.172742,833.814935 242.465316,835.478286 247.7722,837.009626 C253.096685,838.558567 257.602696,840.292325 261.272631,842.219701 C264.951366,844.18228 267.855631,846.470489 269.967824,849.163534 C272.062415,851.830177 273.523348,855.112877 274.341822,858.976429 C275.204301,863.086404 275.125094,866.905952 274.139404,870.408671 C273.144913,873.920192 271.46396,877.044476 269.034938,879.799128 C266.64112,882.597783 263.578441,884.9828 259.855702,886.980582 C256.141763,888.978364 251.978983,890.483302 247.34096,891.45139 C241.206801,892.77151 235.741503,892.621897 230.98907,891.020151 C226.219035,889.436006 222.073857,886.760562 218.553536,883.064225 C215.033215,879.367888 212.076145,874.861877 209.699928,869.581396 C207.350114,864.292114 205.510747,858.597994 204.23463,852.51664 C199.73742,853.475927 195.416226,854.919259 191.28865,856.89944 C187.187476,858.87962 183.675956,861.370247 180.789292,864.344918 C177.91143,867.31959 175.816839,870.875114 174.479117,874.967487 C173.158997,879.095063 173.053387,883.768289 174.162288,889.092775 C175.3856,894.989313 178.008239,899.926563 182.012604,903.948529 C185.981766,907.952895 191.112634,910.980371 197.334801,912.986954 C203.565769,915.055142 210.773626,916.049633 218.984775,916.049633 C227.187123,916.049633 236.137539,915.019939 245.818422,912.95175 C259.345255,910.082689 270.944713,906.201535 280.607994,901.317089 C290.253673,896.432644 298.015981,890.729724 303.886116,884.129122 C309.747451,877.563724 313.646206,870.294261 315.582383,862.215124 C317.52736,854.153589 317.52736,845.555205 315.599984,836.323164 L315.599984,836.323164 Z M169.612273,663.21138 C175.429604,671.176106 182.373437,677.345468 190.470175,681.710666 C198.549312,686.075864 207.464525,688.724906 217.198212,689.666592 C226.923099,690.617078 236.947213,689.97462 247.296956,687.774419 C258.826008,685.318995 268.559695,681.96589 276.454015,677.6887 C284.357136,673.402709 290.614506,668.782288 295.252529,663.818635 C299.908153,658.82858 303.076442,653.794521 304.757396,648.672454 C306.45595,643.58559 306.869588,638.97397 306.007109,634.855194 C305.399854,631.994933 304.449367,629.337091 303.138048,626.890468 C301.826728,624.452646 300.330592,622.52527 298.658439,621.134743 C296.951084,625.103905 294.777286,629.073067 292.101842,633.05103 C289.426398,637.055395 286.258109,640.778134 282.561772,644.272053 C278.874236,647.792374 274.720257,650.855053 270.099836,653.521696 C265.497016,656.179538 260.445355,658.089313 254.944854,659.242218 C242.61493,661.873658 232.670023,660.25431 225.06613,654.392976 C217.471037,648.566844 212.296165,639.026775 209.550315,625.825571 C209.145478,623.933398 208.740641,621.856409 208.318202,619.585802 C207.904565,617.297593 207.63174,615.035787 207.482126,612.729977 C209.620721,612.518758 211.794519,612.157925 213.977118,611.682681 C216.177319,611.216239 218.210304,610.785 220.084875,610.388963 C234.606199,607.317483 247.640188,602.591452 259.169239,596.193269 C270.69829,589.812687 280.247161,582.508021 287.824652,574.244068 C295.393342,565.971314 300.841038,557.073702 304.141339,547.604039 C307.424039,538.107973 308.128103,528.743919 306.191926,519.564682 C303.551686,506.909128 297.056693,498.04672 286.671747,492.88945 C276.2956,487.73218 263.02399,486.887303 246.848116,490.328417 C234.421382,492.977458 223.323571,497.131437 213.55468,502.843158 C203.768188,508.581281 195.284214,515.305094 188.067556,523.085003 C180.859699,530.891315 174.83995,539.419293 170.078716,548.71294 C165.29988,557.997787 161.656348,567.502653 159.15692,577.253942 C156.657492,586.978829 155.266965,596.659712 154.98534,606.331794 C154.703714,616.012676 155.451782,625.0511 157.203142,633.455867 C159.693769,645.33695 163.821345,655.237853 169.612273,663.21138 L169.612273,663.21138 Z M556.213923,600.558467 C556.961991,604.09639 558.299713,607.053459 560.218288,609.412074 C562.163265,611.797092 564.486677,613.610057 567.223727,614.877373 C569.969577,616.153489 573.005854,616.892756 576.376561,617.04237 C579.747268,617.200785 583.285191,616.875155 587.025532,616.065481 C591.091503,615.220604 594.946254,613.812476 598.554583,611.8851 C602.180514,609.957724 605.251994,607.537503 607.804227,604.633239 C610.36526,601.711372 612.178225,598.323063 613.260724,594.459511 C614.343223,590.569556 614.404828,586.309968 613.43674,581.636742 C612.635867,577.8876 611.218938,574.807319 609.15955,572.4047 C607.108963,569.984479 604.671141,568.171514 601.819681,566.939402 C598.985823,565.698489 595.835135,565.012026 592.446826,564.924018 C589.049717,564.853612 585.520595,565.188042 581.885863,565.944911 C577.723084,566.833792 573.815528,568.224319 570.189597,570.09889 C566.546065,571.955859 563.53619,574.314474 561.168774,577.201137 C558.774956,580.070199 557.094003,583.440906 556.117114,587.286857 C555.140225,591.141609 555.166627,595.577213 556.213923,600.558467 L556.213923,600.558467 Z M8.68960088,696.522417 C-49.8621377,375.557152 162.985269,67.7314854 483.950534,9.17094599 C787.393401,-46.1949021 1078.13671,154.833027 1133.47616,458.099878 L1268.13723,429.541274 C1333.72961,789.071655 1095.5183,1133.62307 735.996715,1199.22425 C396.38255,1261.1907 70.6208476,1035.96057 8.68960088,696.522417 Z M900.580521,598.895115 C893.971118,600.285642 888.312203,603.277915 883.586172,607.863133 C878.868942,612.492355 874.890979,618.107267 871.705088,624.795877 C868.510397,631.51969 866.010969,638.877161 864.171601,646.903493 C862.349835,654.929825 861.135325,663.114571 860.519268,671.466532 C859.920814,679.818494 859.859208,687.915232 860.360854,695.783149 C860.844898,703.677469 861.751381,710.779717 863.071501,717.081091 C864.453227,723.637689 866.063774,729.032581 867.920743,733.256966 C869.795314,737.507754 871.801897,740.808055 873.949293,743.157869 C876.131892,745.551687 878.455304,747.083027 880.954732,747.751888 C883.445359,748.473554 886.023994,748.526358 888.655434,747.954306 C893.601485,746.907011 898.257109,743.641913 902.639909,738.22942 C907.022708,732.781723 910.780651,726.040308 913.922538,717.996375 C917.082026,710.005246 919.563852,701.169241 921.394419,691.523561 C923.233787,681.877882 924.131468,672.302609 924.096265,662.815344 L924.166672,603.77076 C921.280008,601.02491 917.742086,599.308753 913.517701,598.569486 C909.284515,597.856621 904.963321,597.96223 900.580521,598.895115 L900.580521,598.895115 Z M466.155311,735.457167 C465.169622,730.801542 463.937509,726.365938 462.41497,722.10635 C460.892432,717.83796 459.079466,714.141623 457.002477,711.017338 C454.899085,707.85785 452.461263,705.481634 449.653807,703.862286 C446.83755,702.286942 443.730867,702.058122 440.175343,702.612572 C429.790396,704.161513 403.194371,729.991869 403.194371,782.955098 L403.088761,846.655306 C404.28567,847.464979 407.049122,848.274653 408.923693,849.075526 C410.833467,849.902802 412.910457,850.518858 415.181064,850.967699 C417.469272,851.41654 419.907095,851.671763 422.503331,851.759771 C425.099568,851.847779 427.731008,851.618958 430.353647,851.055707 C436.408599,849.77079 441.697881,846.892927 446.221494,842.474924 C450.745106,838.048121 454.547053,832.609225 457.636135,826.167038 C460.716415,819.707249 463.145437,812.587399 464.949601,804.728283 C466.762567,796.877967 467.968277,788.90444 468.566731,780.772499 C469.165186,772.67576 469.253194,764.684632 468.821955,756.860718 C468.381914,749.001602 467.493033,741.872952 466.155311,735.457167 L466.155311,735.457167 Z M205.906783,592.752155 C205.528348,584.364991 205.906783,575.775407 207.050887,566.886597 C208.168589,558.03299 210.025558,549.848243 212.604193,542.376362 C215.165227,534.89568 218.483129,528.541501 222.566702,523.313824 C226.650274,518.121351 231.446711,514.944261 236.929611,513.773754 C242.218893,512.656052 246.724904,513.738551 250.456445,517.003649 C254.170383,520.251145 256.757819,525.35561 258.218752,532.352248 C259.723689,539.542504 259.565275,546.345524 257.75231,552.752508 C255.921743,559.150692 252.779856,564.994424 248.32665,570.274906 C243.855843,575.58179 238.249732,580.123004 231.517118,583.854544 C224.775703,587.594885 217.233415,590.367138 208.855051,592.118498 L205.906783,592.752155 Z" id="Fill-15" fill="#1A1919"></path>
    </g>
</svg>